<svg width="24" height="24" viewBox="0 0 24 24" fill="none" xmlns="http://www.w3.org/2000/svg">
<path d="M7.21 16.7L9 12.2C9.42584 12.2175 9.85088 12.1495 10.25 12L12.05 13.8C11.892 14.1807 11.8072 14.5878 11.8 15C11.8 15.8487 12.1371 16.6626 12.7373 17.2627C13.3374 17.8628 14.1513 18.2 15 18.2C15.8487 18.2 16.6626 17.8628 17.2627 17.2627C17.8629 16.6626 18.2 15.8487 18.2 15C18.1997 14.5686 18.1108 14.1418 17.9388 13.7462C17.7668 13.3505 17.5153 12.9944 17.2 12.7L19 8.19999C19.6329 8.19999 20.2516 8.01231 20.7778 7.66069C21.3041 7.30907 21.7142 6.8093 21.9564 6.22458C22.1986 5.63985 22.262 4.99644 22.1385 4.3757C22.015 3.75496 21.7103 3.18478 21.2627 2.73725C20.8152 2.28972 20.245 1.98495 19.6243 1.86148C19.0035 1.738 18.3601 1.80137 17.7754 2.04357C17.1907 2.28578 16.6909 2.69593 16.3393 3.22216C15.9877 3.7484 15.8 4.36709 15.8 4.99999C15.8015 5.43122 15.8909 5.85762 16.0629 6.25309C16.2348 6.64856 16.4856 7.00479 16.8 7.29999L15 11.8C14.5741 11.7997 14.1525 11.8847 13.76 12.05L12 10.25C12.1472 9.85026 12.2151 9.42569 12.2 8.99999C12.2 8.1513 11.8629 7.33736 11.2627 6.73725C10.6626 6.13713 9.84869 5.79999 9 5.79999C8.15131 5.79999 7.33738 6.13713 6.73726 6.73725C6.13714 7.33736 5.8 8.1513 5.8 8.99999C5.80148 9.43122 5.89093 9.85762 6.06287 10.2531C6.23481 10.6486 6.48564 11.0048 6.8 11.3L5 15.8C4.3671 15.8 3.74841 15.9877 3.22218 16.3393C2.69594 16.6909 2.28579 17.1907 2.04359 17.7754C1.80139 18.3601 1.73802 19.0035 1.86149 19.6243C1.98496 20.245 2.28973 20.8152 2.73726 21.2627C3.18479 21.7103 3.75497 22.015 4.37571 22.1385C4.99645 22.262 5.63986 22.1986 6.22459 21.9564C6.80931 21.7142 7.30908 21.3041 7.6607 20.7778C8.01232 20.2516 8.2 19.6329 8.2 19C8.20098 18.5693 8.11364 18.143 7.94336 17.7474C7.77308 17.3518 7.52349 16.9953 7.21 16.7ZM15 15.8C14.8418 15.8 14.6871 15.7531 14.5555 15.6652C14.424 15.5773 14.3214 15.4523 14.2609 15.3061C14.2003 15.16 14.1845 14.9991 14.2154 14.8439C14.2462 14.6887 14.3224 14.5462 14.4343 14.4343C14.5462 14.3224 14.6887 14.2462 14.8439 14.2154C14.9991 14.1845 15.16 14.2003 15.3061 14.2609C15.4523 14.3214 15.5773 14.424 15.6652 14.5555C15.7531 14.6871 15.8 14.8418 15.8 15C15.8 15.2122 15.7157 15.4156 15.5657 15.5657C15.4157 15.7157 15.2122 15.8 15 15.8ZM19 4.19999C19.1582 4.19999 19.3129 4.24691 19.4445 4.33481C19.576 4.42272 19.6786 4.54766 19.7391 4.69384C19.7997 4.84002 19.8155 5.00088 19.7846 5.15606C19.7538 5.31125 19.6776 5.45379 19.5657 5.56567C19.4538 5.67756 19.3113 5.75375 19.1561 5.78462C19.0009 5.81549 18.84 5.79964 18.6939 5.73909C18.5477 5.67854 18.4227 5.576 18.3348 5.44445C18.2469 5.31289 18.2 5.15821 18.2 4.99999C18.2 4.78782 18.2843 4.58433 18.4343 4.4343C18.5843 4.28427 18.7878 4.19999 19 4.19999ZM9 8.19999C9.15823 8.19999 9.3129 8.24691 9.44446 8.33481C9.57602 8.42272 9.67855 8.54766 9.7391 8.69384C9.79965 8.84002 9.8155 9.00088 9.78463 9.15606C9.75376 9.31125 9.67757 9.45379 9.56569 9.56567C9.4538 9.67756 9.31126 9.75375 9.15607 9.78462C9.00089 9.81549 8.84003 9.79964 8.69385 9.73909C8.54767 9.67854 8.42273 9.576 8.33483 9.44445C8.24692 9.31289 8.2 9.15821 8.2 8.99999C8.2 8.78782 8.28429 8.58433 8.43432 8.4343C8.58434 8.28427 8.78783 8.19999 9 8.19999ZM5 19.8C4.84178 19.8 4.6871 19.7531 4.55554 19.6652C4.42399 19.5773 4.32145 19.4523 4.2609 19.3061C4.20035 19.16 4.1845 18.9991 4.21537 18.8439C4.24624 18.6887 4.32243 18.5462 4.43432 18.4343C4.5462 18.3224 4.68874 18.2462 4.84393 18.2154C4.99911 18.1845 5.15997 18.2003 5.30615 18.2609C5.45233 18.3214 5.57727 18.424 5.66518 18.5555C5.75308 18.6871 5.8 18.8418 5.8 19C5.8 19.2122 5.71572 19.4156 5.56569 19.5657C5.41566 19.7157 5.21217 19.8 5 19.8Z" fill="currentColor"/>
<path d="M21 19.8H10C9.68174 19.8 9.37651 19.9264 9.15147 20.1515C8.92643 20.3765 8.8 20.6817 8.8 21C8.8 21.3182 8.92643 21.6235 9.15147 21.8485C9.37651 22.0736 9.68174 22.2 10 22.2H21C21.3183 22.2 21.6235 22.0736 21.8485 21.8485C22.0736 21.6235 22.2 21.3182 22.2 21C22.2 20.6817 22.0736 20.3765 21.8485 20.1515C21.6235 19.9264 21.3183 19.8 21 19.8Z" fill="currentColor"/>
</svg>
