<svg width="24" height="24" viewBox="0 0 24 24" fill="none" xmlns="http://www.w3.org/2000/svg">
<path d="M22.14 13.62L20.2 7.80999V3.99999C20.2 3.68173 20.0736 3.3765 19.8485 3.15146C19.6235 2.92642 19.3183 2.79999 19 2.79999H4.99999C4.68174 2.79999 4.37651 2.92642 4.15147 3.15146C3.92642 3.3765 3.79999 3.68173 3.79999 3.99999V7.80999L1.85999 13.62C1.80201 13.8005 1.78726 13.9921 1.81692 14.1794C1.84658 14.3666 1.91983 14.5443 2.03077 14.698C2.1417 14.8518 2.28721 14.9773 2.45557 15.0645C2.62392 15.1517 2.81041 15.1981 2.99999 15.2H3.79999V20C3.79999 20.3182 3.92642 20.6235 4.15147 20.8485C4.37651 21.0736 4.68174 21.2 4.99999 21.2H14C14.3183 21.2 14.6235 21.0736 14.8485 20.8485C15.0736 20.6235 15.2 20.3182 15.2 20V15.2H17.8V20C17.8 20.3182 17.9264 20.6235 18.1515 20.8485C18.3765 21.0736 18.6817 21.2 19 21.2C19.3183 21.2 19.6235 21.0736 19.8485 20.8485C20.0736 20.6235 20.2 20.3182 20.2 20V15.2H21C21.1896 15.1981 21.3761 15.1517 21.5444 15.0645C21.7128 14.9773 21.8583 14.8518 21.9692 14.698C22.0802 14.5443 22.1534 14.3666 22.1831 14.1794C22.2127 13.9921 22.198 13.8005 22.14 13.62ZM17.8 5.19999V6.79999H6.19999V5.19999H17.8ZM12.8 18.8H6.19999V15.2H12.8V18.8ZM4.99999 12.8H4.66999L5.86999 9.19999H18.13L19.33 12.8H4.99999Z" fill="#A4A8B5"/>
</svg>
