<svg width="24" height="24" viewBox="0 0 24 24" fill="none" xmlns="http://www.w3.org/2000/svg">
<path d="M18 3.79999H17.2V2.99999C17.2 2.68173 17.0736 2.3765 16.8485 2.15146C16.6235 1.92642 16.3182 1.79999 16 1.79999C15.6817 1.79999 15.3765 1.92642 15.1515 2.15146C14.9264 2.3765 14.8 2.68173 14.8 2.99999V3.79999H9.19999V2.99999C9.19999 2.8424 9.16895 2.68636 9.10864 2.54077C9.04834 2.39518 8.95995 2.26289 8.84852 2.15146C8.73709 2.04003 8.6048 1.95164 8.45921 1.89133C8.31362 1.83103 8.15757 1.79999 7.99999 1.79999C7.8424 1.79999 7.68636 1.83103 7.54077 1.89133C7.39518 1.95164 7.26289 2.04003 7.15146 2.15146C7.04003 2.26289 6.95164 2.39518 6.89133 2.54077C6.83103 2.68636 6.79999 2.8424 6.79999 2.99999V3.79999H5.99999C4.88608 3.79999 3.81779 4.24249 3.03014 5.03014C2.24249 5.81779 1.79999 6.88608 1.79999 7.99999V17C1.79999 18.1139 2.24249 19.1822 3.03014 19.9698C3.81779 20.7575 4.88608 21.2 5.99999 21.2H18C19.1139 21.2 20.1822 20.7575 20.9698 19.9698C21.7575 19.1822 22.2 18.1139 22.2 17V7.99999C22.2 6.88608 21.7575 5.81779 20.9698 5.03014C20.1822 4.24249 19.1139 3.79999 18 3.79999ZM5.99999 6.19999H6.79999V6.99999C6.79999 7.15757 6.83103 7.31362 6.89133 7.45921C6.95164 7.6048 7.04003 7.73709 7.15146 7.84852C7.26289 7.95995 7.39518 8.04834 7.54077 8.10864C7.68636 8.16895 7.8424 8.19999 7.99999 8.19999C8.15757 8.19999 8.31362 8.16895 8.45921 8.10864C8.6048 8.04834 8.73709 7.95995 8.84852 7.84852C8.95995 7.73709 9.04834 7.6048 9.10864 7.45921C9.16895 7.31362 9.19999 7.15757 9.19999 6.99999V6.19999H14.8V6.99999C14.8 7.31825 14.9264 7.62347 15.1515 7.84852C15.3765 8.07356 15.6817 8.19999 16 8.19999C16.3182 8.19999 16.6235 8.07356 16.8485 7.84852C17.0736 7.62347 17.2 7.31825 17.2 6.99999V6.19999H18C18.2367 6.19866 18.4714 6.24431 18.6904 6.3343C18.9094 6.42429 19.1083 6.55683 19.2757 6.72424C19.4431 6.89165 19.5757 7.09061 19.6657 7.30959C19.7557 7.52858 19.8013 7.76324 19.8 7.99999V9.79999H4.19999V7.99999C4.19866 7.76324 4.24431 7.52858 4.3343 7.30959C4.42429 7.09061 4.55683 6.89165 4.72424 6.72424C4.89165 6.55683 5.09061 6.42429 5.30959 6.3343C5.52858 6.24431 5.76324 6.19866 5.99999 6.19999ZM18 18.8H5.99999C5.76324 18.8013 5.52858 18.7557 5.30959 18.6657C5.09061 18.5757 4.89165 18.4431 4.72424 18.2757C4.55683 18.1083 4.42429 17.9094 4.3343 17.6904C4.24431 17.4714 4.19866 17.2367 4.19999 17V12.2H19.8V17C19.8013 17.2367 19.7557 17.4714 19.6657 17.6904C19.5757 17.9094 19.4431 18.1083 19.2757 18.2757C19.1083 18.4431 18.9094 18.5757 18.6904 18.6657C18.4714 18.7557 18.2367 18.8013 18 18.8Z" fill="#A4A8B5"/>
</svg>
