<svg width="24" height="24" viewBox="0 0 24 24" fill="none" xmlns="http://www.w3.org/2000/svg">
<path d="M12 12.2C13.0285 12.2 14.0338 11.895 14.889 11.3236C15.7441 10.7522 16.4106 9.94012 16.8042 8.98994C17.1977 8.03977 17.3007 6.99422 17.1001 5.98552C16.8994 4.97682 16.4042 4.05027 15.677 3.32303C14.9497 2.5958 14.0232 2.10055 13.0145 1.89991C12.0058 1.69926 10.9602 1.80224 10.01 2.19582C9.05987 2.58939 8.24774 3.25589 7.67636 4.11103C7.10497 4.96616 6.8 5.97153 6.8 6.99999C6.8 8.37912 7.34785 9.70176 8.32304 10.6769C9.29823 11.6521 10.6209 12.2 12 12.2ZM12 4.19999C12.5538 4.19999 13.0951 4.36421 13.5556 4.67188C14.0161 4.97954 14.3749 5.41684 14.5869 5.92848C14.7988 6.44011 14.8542 7.0031 14.7462 7.54624C14.6382 8.08939 14.3715 8.5883 13.9799 8.97989C13.5883 9.37148 13.0894 9.63815 12.5463 9.74619C12.0031 9.85423 11.4401 9.79878 10.9285 9.58685C10.4169 9.37493 9.97955 9.01604 9.67188 8.55559C9.36422 8.09513 9.2 7.55378 9.2 6.99999C9.20263 6.25819 9.49848 5.54753 10.023 5.023C10.5475 4.49847 11.2582 4.20263 12 4.19999Z" fill="#A4A8B5"/>
<path d="M17 12.8H15C14.8071 12.7945 14.6157 12.8352 14.4418 12.9187C14.2678 13.0022 14.1163 13.126 14 13.28L12 16L10 13.28C9.88366 13.126 9.7322 13.0022 9.55824 12.9187C9.38428 12.8352 9.19288 12.7945 9 12.8H7C5.62087 12.8 4.29823 13.3479 3.32304 14.323C2.34785 15.2982 1.8 16.6209 1.8 18V21C1.8 21.3183 1.92643 21.6235 2.15147 21.8485C2.37651 22.0736 2.68174 22.2 3 22.2H21C21.3183 22.2 21.6235 22.0736 21.8485 21.8485C22.0736 21.6235 22.2 21.3183 22.2 21V18C22.2 16.6209 21.6521 15.2982 20.677 14.323C19.7018 13.3479 18.3791 12.8 17 12.8ZM19.79 19.8H4.2V18C4.19868 17.6319 4.2702 17.2672 4.41044 16.9269C4.55069 16.5866 4.75689 16.2774 5.01715 16.0171C5.27742 15.7569 5.58662 15.5507 5.92692 15.4104C6.26723 15.2702 6.63193 15.1987 7 15.2H8.4L11 18.72C11.1163 18.8622 11.2628 18.9769 11.4288 19.0556C11.5948 19.1343 11.7763 19.1751 11.96 19.1751C12.1437 19.1751 12.3252 19.1343 12.4912 19.0556C12.6572 18.9769 12.8037 18.8622 12.92 18.72L15.6 15.2H17C17.3681 15.1987 17.7328 15.2702 18.0731 15.4104C18.4134 15.5507 18.7226 15.7569 18.9828 16.0171C19.2431 16.2774 19.4493 16.5866 19.5896 16.9269C19.7298 17.2672 19.8013 17.6319 19.8 18L19.79 19.8Z" fill="#A4A8B5"/>
<path d="M17 16.8H16C15.6817 16.8 15.3765 16.9264 15.1515 17.1515C14.9264 17.3765 14.8 17.6817 14.8 18C14.8 18.3182 14.9264 18.6235 15.1515 18.8485C15.3765 19.0736 15.6817 19.2 16 19.2H17C17.3183 19.2 17.6235 19.0736 17.8485 18.8485C18.0736 18.6235 18.2 18.3182 18.2 18C18.2 17.6817 18.0736 17.3765 17.8485 17.1515C17.6235 16.9264 17.3183 16.8 17 16.8Z" fill="#A4A8B5"/>
</svg>
